<?xml version="1.0" encoding="utf-8"?>
<!-- Generator: Adobe Illustrator 28.0.0, SVG Export Plug-In . SVG Version: 6.00 Build 0)  -->
<svg version="1.1" xmlns="http://www.w3.org/2000/svg" xmlns:xlink="http://www.w3.org/1999/xlink"
	x="0px" y="0px"
	viewBox="0 0 1000 1000" style="enable-background:new 0 0 1000 1000;" xml:space="preserve">
<path style="fill:#FFFFFF" d="M512,896c0,0-260.4-152.2-267.5-390.5c-3-100,57-187,138-225c57.1-26.8,108-24,108-24c24.3-19,73-46,112-59
	c45.9-15.3,86-20,117-16c0,0-56.2-41.3-118.7-60.4c-57.4-17.6-133.3-28.6-228.3-1.6c-20.7,5.9-160.7,50-237.1,189.6
	C126,326.3,93.3,389.2,89,477c-1.6,32.4-5.1,142.7,69,249C259.4,871.4,417,905,512,896z"/>
<path style="fill:#FFFFFF" d="M601.5,284.5c25.9,14.2,48,31,64,49c33.3,37.4,48,72,53,88c4.5,13.1,18.4,55.1,11,110c-8,59-34,97-44,111
	c-42,58-94.9,79.2-116,87c-46,17-96.3,17.3-131,9C403,730,391,725,373,715c0,0,36.4,42.4,63,67c53,49,140,104,140,104
	c49-9,115.5-32.5,173-74c88-62,139.5-139.5,159.5-235.5c0,0-48,46-94,50c0,0,19-7,38-20c0,0,123-169,11-362c0,0-17,98-49,108
	c0,0,19-20,18-42c0-11-43-81-79-90c-68-17-135,4-200,45c7.4,2,15.5,4.6,24,8C586.5,277,594.5,280.8,601.5,284.5z"/>
<circle style="fill:#FFFFFF" cx="488.5" cy="500.5" r="196.5"/>
<path style="fill:#C3292E;" d="M385.5,519.5l198-81c0,0-33,106-109,119S385.5,519.5,385.5,519.5z"/>
</svg>
